<svg xmlns="http://www.w3.org/2000/svg" width="18.64" height="23.91" viewBox="0 0 18.64 23.91">
	<style type="text/css">
		.st0{fill:#4f453c;}
	</style>
	<path class="st0" d="M2,6.91L2,21.91L16.64,21.91L16.64,6.91ZM16.64,21.91L16.64,22.91L16.64,21.91ZM16.64,23.91L2,23.91C0.89,23.91 0,23.01 0,21.91L0,6.91C0,5.81 0.89,4.91 2,4.91L16.64,4.91C17.74,4.91 18.64,5.81 18.64,6.91L18.64,21.91C18.64,23.01 17.74,23.91 16.64,23.91"/>
	<path class="st0" d="M12.94,9.25C12.39,9.25 11.94,8.8 11.94,8.25L11.94,2L6.69,2L6.69,8.25C6.69,8.8 6.25,9.25 5.69,9.25C5.14,9.25 4.69,8.8 4.69,8.25L4.69,2C4.69,0.89 5.59,0 6.69,0L11.94,0C13.05,0 13.94,0.89 13.94,2L13.94,8.25C13.94,8.8 13.5,9.25 12.94,9.25"/>
</svg>