<svg xmlns="http://www.w3.org/2000/svg" width="25.63" height="21.67" viewBox="0 0 25.63 21.67">
	<style type="text/css">
		.st0{fill:#a77c5a;}
	</style>
	<path class="st0" d="M14.08,10.81C13.8,10.81 13.52,10.69 13.32,10.46C12.96,10.05 13,9.42 13.42,9.05L17.66,5.4L13.42,1.75C13,1.39 12.96,0.76 13.32,0.34C13.68,-0.07 14.31,-0.11 14.73,0.24L19.85,4.65C20.07,4.84 20.19,5.11 20.19,5.4C20.19,5.7 20.07,5.97 19.85,6.16L14.73,10.57C14.54,10.73 14.31,10.81 14.08,10.81"/>
	<path class="st0" d="M3.21,16.68C2.99,16.68 2.78,16.61 2.6,16.47C0.94,15.2 0,13.27 0,11.19C0,7.51 2.99,4.52 6.66,4.52L18.33,4.52C18.88,4.52 19.33,4.97 19.33,5.52C19.33,6.07 18.88,6.52 18.33,6.52L6.66,6.52C4.09,6.52 1.99,8.61 1.99,11.19C1.99,12.65 2.66,14 3.82,14.89C4.26,15.23 4.34,15.85 4,16.29C3.8,16.55 3.51,16.68 3.21,16.68"/>
	<path class="st0" d="M11.55,21.67C11.32,21.67 11.09,21.59 10.9,21.42L5.78,17.01C5.56,16.82 5.43,16.55 5.43,16.26C5.43,15.97 5.56,15.69 5.78,15.5L10.9,11.09C11.31,10.73 11.94,10.78 12.31,11.2C12.67,11.61 12.62,12.25 12.2,12.61L7.96,16.26L12.2,19.91C12.62,20.27 12.67,20.9 12.31,21.32C12.11,21.55 11.83,21.67 11.55,21.67"/>
	<path class="st0" d="M18.96,17.14L7.3,17.14C6.74,17.14 6.3,16.69 6.3,16.14C6.3,15.59 6.74,15.14 7.3,15.14L18.96,15.14C21.54,15.14 23.63,13.05 23.63,10.47C23.63,9.01 22.97,7.66 21.81,6.77C21.37,6.43 21.29,5.81 21.62,5.37C21.96,4.93 22.59,4.85 23.03,5.19C24.68,6.46 25.63,8.39 25.63,10.47C25.63,14.15 22.64,17.14 18.96,17.14"/>
</svg>