<svg xmlns="http://www.w3.org/2000/svg" width="22.84" height="23.23" viewBox="0 0 22.84 23.23">
	<style type="text/css">
		.st0{fill:#4f453c;}
	</style>
	<path class="st0" d="M9.96,2C5.57,2 2,5.57 1.99,9.97C2,14.36 5.57,17.93 9.96,17.93C14.36,17.93 17.93,14.36 17.93,9.96C17.93,5.57 14.36,2 9.96,2M9.96,19.93C4.47,19.93 0,15.46 0,9.97C0,4.47 4.47,0 9.96,0C15.46,0 19.93,4.47 19.93,9.96C19.93,15.46 15.46,19.93 9.96,19.93"/>
	<path class="st0" d="M21.84,23.23C21.59,23.23 21.33,23.13 21.13,22.93L15.57,17.37C15.18,16.98 15.18,16.34 15.57,15.95C15.96,15.56 16.59,15.56 16.98,15.95L22.55,21.52C22.94,21.91 22.94,22.54 22.55,22.93C22.35,23.13 22.1,23.23 21.84,23.23"/>
</svg>